<mxfile host="65bd71144e">
    <diagram id="T4w6vP_TJP8UEfzcJRtv" name="Page-1">
        <mxGraphModel dx="2820" dy="1278" grid="1" gridSize="10" guides="1" tooltips="1" connect="1" arrows="1" fold="1" page="1" pageScale="1" pageWidth="1169" pageHeight="827" math="0" shadow="0">
            <root>
                <mxCell id="0"/>
                <mxCell id="1" parent="0"/>
                <mxCell id="n3J1-mMRtTTgr1ZvrD_W-1" value="" style="rounded=0;whiteSpace=wrap;html=1;fillColor=none;" parent="1" vertex="1">
                    <mxGeometry x="20" y="80" width="1920" height="960" as="geometry"/>
                </mxCell>
                <mxCell id="n3J1-mMRtTTgr1ZvrD_W-2" value="FIT" style="rounded=0;whiteSpace=wrap;html=1;fillColor=#ffffff;align=left;fontSize=30;fontStyle=0;spacingLeft=20;" parent="1" vertex="1">
                    <mxGeometry x="20" y="80" width="1920" height="60" as="geometry"/>
                </mxCell>
                <mxCell id="wl6M1XQbtu3m3_-OwSxi-1" value="/" style="rounded=0;whiteSpace=wrap;html=1;fillColor=none;align=left;fontSize=30;fontStyle=0;spacingLeft=0;strokeColor=none;" parent="1" vertex="1">
                    <mxGeometry x="20" y="20" width="1920" height="40" as="geometry"/>
                </mxCell>
                <mxCell id="wl6M1XQbtu3m3_-OwSxi-2" value="Company A" style="rounded=1;whiteSpace=wrap;html=1;fillColor=#ffffff;fontSize=18;align=left;spacingLeft=60;" parent="1" vertex="1">
                    <mxGeometry x="40" y="230" width="190" height="50" as="geometry"/>
                </mxCell>
                <mxCell id="wl6M1XQbtu3m3_-OwSxi-3" value="Logo" style="rounded=0;whiteSpace=wrap;html=1;fillColor=none;fontSize=12;align=center;strokeColor=none;" parent="1" vertex="1">
                    <mxGeometry x="50" y="237.5" width="40" height="35" as="geometry"/>
                </mxCell>
                <mxCell id="wl6M1XQbtu3m3_-OwSxi-4" value="Characteristic 1" style="rounded=1;whiteSpace=wrap;html=1;fillColor=#ffffff;fontSize=16;align=left;spacingLeft=50;" parent="1" vertex="1">
                    <mxGeometry x="250" y="235" width="190" height="40" as="geometry"/>
                </mxCell>
                <mxCell id="wl6M1XQbtu3m3_-OwSxi-5" value="Icon" style="rounded=0;whiteSpace=wrap;html=1;fillColor=none;fontSize=12;align=center;strokeColor=none;" parent="1" vertex="1">
                    <mxGeometry x="260" y="240" width="30" height="30" as="geometry"/>
                </mxCell>
                <mxCell id="wl6M1XQbtu3m3_-OwSxi-6" value="Characteristic 2" style="rounded=1;whiteSpace=wrap;html=1;fillColor=#ffffff;fontSize=16;align=left;spacingLeft=50;" parent="1" vertex="1">
                    <mxGeometry x="460" y="235" width="190" height="40" as="geometry"/>
                </mxCell>
                <mxCell id="wl6M1XQbtu3m3_-OwSxi-7" value="Icon" style="rounded=0;whiteSpace=wrap;html=1;fillColor=none;fontSize=12;align=center;strokeColor=none;" parent="1" vertex="1">
                    <mxGeometry x="470" y="240" width="30" height="30" as="geometry"/>
                </mxCell>
                <mxCell id="wl6M1XQbtu3m3_-OwSxi-8" value="Characteristic 3" style="rounded=1;whiteSpace=wrap;html=1;fillColor=#ffffff;fontSize=16;align=left;spacingLeft=50;" parent="1" vertex="1">
                    <mxGeometry x="670" y="235" width="190" height="40" as="geometry"/>
                </mxCell>
                <mxCell id="wl6M1XQbtu3m3_-OwSxi-9" value="Icon" style="rounded=0;whiteSpace=wrap;html=1;fillColor=none;fontSize=12;align=center;strokeColor=none;" parent="1" vertex="1">
                    <mxGeometry x="680" y="240" width="30" height="30" as="geometry"/>
                </mxCell>
                <mxCell id="wl6M1XQbtu3m3_-OwSxi-10" value="Company B" style="rounded=1;whiteSpace=wrap;html=1;fillColor=#ffffff;fontSize=18;align=left;spacingLeft=60;" parent="1" vertex="1">
                    <mxGeometry x="40" y="300" width="190" height="50" as="geometry"/>
                </mxCell>
                <mxCell id="wl6M1XQbtu3m3_-OwSxi-11" value="Logo" style="rounded=0;whiteSpace=wrap;html=1;fillColor=none;fontSize=12;align=center;strokeColor=none;" parent="1" vertex="1">
                    <mxGeometry x="50" y="307.5" width="40" height="35" as="geometry"/>
                </mxCell>
                <mxCell id="wl6M1XQbtu3m3_-OwSxi-12" value="Characteristic 1" style="rounded=1;whiteSpace=wrap;html=1;fillColor=#ffffff;fontSize=16;align=left;spacingLeft=50;" parent="1" vertex="1">
                    <mxGeometry x="250" y="305" width="190" height="40" as="geometry"/>
                </mxCell>
                <mxCell id="wl6M1XQbtu3m3_-OwSxi-13" value="Icon" style="rounded=0;whiteSpace=wrap;html=1;fillColor=none;fontSize=12;align=center;strokeColor=none;" parent="1" vertex="1">
                    <mxGeometry x="260" y="310" width="30" height="30" as="geometry"/>
                </mxCell>
                <mxCell id="wl6M1XQbtu3m3_-OwSxi-14" value="Characteristic 4" style="rounded=1;whiteSpace=wrap;html=1;fillColor=#ffffff;fontSize=16;align=left;spacingLeft=50;" parent="1" vertex="1">
                    <mxGeometry x="460" y="305" width="190" height="40" as="geometry"/>
                </mxCell>
                <mxCell id="wl6M1XQbtu3m3_-OwSxi-15" value="Icon" style="rounded=0;whiteSpace=wrap;html=1;fillColor=none;fontSize=12;align=center;strokeColor=none;" parent="1" vertex="1">
                    <mxGeometry x="470" y="310" width="30" height="30" as="geometry"/>
                </mxCell>
                <mxCell id="wl6M1XQbtu3m3_-OwSxi-18" value="Company C" style="rounded=1;whiteSpace=wrap;html=1;fillColor=#ffffff;fontSize=18;align=left;spacingLeft=60;" parent="1" vertex="1">
                    <mxGeometry x="40" y="370" width="190" height="50" as="geometry"/>
                </mxCell>
                <mxCell id="wl6M1XQbtu3m3_-OwSxi-19" value="Logo" style="rounded=0;whiteSpace=wrap;html=1;fillColor=none;fontSize=12;align=center;strokeColor=none;" parent="1" vertex="1">
                    <mxGeometry x="50" y="377.5" width="40" height="35" as="geometry"/>
                </mxCell>
                <mxCell id="wl6M1XQbtu3m3_-OwSxi-20" value="Characteristic 1" style="rounded=1;whiteSpace=wrap;html=1;fillColor=#ffffff;fontSize=16;align=left;spacingLeft=50;" parent="1" vertex="1">
                    <mxGeometry x="250" y="375" width="190" height="40" as="geometry"/>
                </mxCell>
                <mxCell id="wl6M1XQbtu3m3_-OwSxi-21" value="Icon" style="rounded=0;whiteSpace=wrap;html=1;fillColor=none;fontSize=12;align=center;strokeColor=none;" parent="1" vertex="1">
                    <mxGeometry x="260" y="380" width="30" height="30" as="geometry"/>
                </mxCell>
                <mxCell id="wl6M1XQbtu3m3_-OwSxi-22" value="Characteristic 3" style="rounded=1;whiteSpace=wrap;html=1;fillColor=#ffffff;fontSize=16;align=left;spacingLeft=50;" parent="1" vertex="1">
                    <mxGeometry x="460" y="375" width="190" height="40" as="geometry"/>
                </mxCell>
                <mxCell id="wl6M1XQbtu3m3_-OwSxi-23" value="Icon" style="rounded=0;whiteSpace=wrap;html=1;fillColor=none;fontSize=12;align=center;strokeColor=none;" parent="1" vertex="1">
                    <mxGeometry x="470" y="380" width="30" height="30" as="geometry"/>
                </mxCell>
                <mxCell id="wl6M1XQbtu3m3_-OwSxi-24" value="Characteristic 5" style="rounded=1;whiteSpace=wrap;html=1;fillColor=#ffffff;fontSize=16;align=left;spacingLeft=50;" parent="1" vertex="1">
                    <mxGeometry x="670" y="375" width="190" height="40" as="geometry"/>
                </mxCell>
                <mxCell id="wl6M1XQbtu3m3_-OwSxi-25" value="Icon" style="rounded=0;whiteSpace=wrap;html=1;fillColor=none;fontSize=12;align=center;strokeColor=none;" parent="1" vertex="1">
                    <mxGeometry x="680" y="380" width="30" height="30" as="geometry"/>
                </mxCell>
                <mxCell id="wl6M1XQbtu3m3_-OwSxi-26" value="Characteristic 6" style="rounded=1;whiteSpace=wrap;html=1;fillColor=#ffffff;fontSize=16;align=left;spacingLeft=50;" parent="1" vertex="1">
                    <mxGeometry x="880" y="375" width="190" height="40" as="geometry"/>
                </mxCell>
                <mxCell id="wl6M1XQbtu3m3_-OwSxi-27" value="Icon" style="rounded=0;whiteSpace=wrap;html=1;fillColor=none;fontSize=12;align=center;strokeColor=none;" parent="1" vertex="1">
                    <mxGeometry x="890" y="380" width="30" height="30" as="geometry"/>
                </mxCell>
                <mxCell id="wl6M1XQbtu3m3_-OwSxi-28" value="Add characteristic" style="rounded=1;whiteSpace=wrap;html=1;fillColor=#ffffff;fontSize=16;align=left;spacingLeft=40;" parent="1" vertex="1">
                    <mxGeometry x="1740" y="160" width="180" height="40" as="geometry"/>
                </mxCell>
                <mxCell id="wl6M1XQbtu3m3_-OwSxi-29" value="+" style="rounded=0;whiteSpace=wrap;html=1;fillColor=none;fontSize=24;align=center;strokeColor=none;fontStyle=1" parent="1" vertex="1">
                    <mxGeometry x="1750" y="170" width="20" height="20" as="geometry"/>
                </mxCell>
                <mxCell id="wl6M1XQbtu3m3_-OwSxi-30" value="Add company" style="rounded=1;whiteSpace=wrap;html=1;fillColor=#ffffff;fontSize=16;align=left;spacingLeft=40;" parent="1" vertex="1">
                    <mxGeometry x="1570" y="160" width="150" height="40" as="geometry"/>
                </mxCell>
                <mxCell id="wl6M1XQbtu3m3_-OwSxi-31" value="+" style="rounded=0;whiteSpace=wrap;html=1;fillColor=none;fontSize=24;align=center;strokeColor=none;fontStyle=1" parent="1" vertex="1">
                    <mxGeometry x="1580" y="170" width="20" height="20" as="geometry"/>
                </mxCell>
                <mxCell id="wl6M1XQbtu3m3_-OwSxi-32" value="Company dashboard" style="rounded=0;whiteSpace=wrap;html=1;fillColor=none;align=left;fontSize=24;fontStyle=0;spacingLeft=20;strokeColor=none;" parent="1" vertex="1">
                    <mxGeometry x="20" y="140" width="260" height="80" as="geometry"/>
                </mxCell>
            </root>
        </mxGraphModel>
    </diagram>
</mxfile>